<?xml version="1.0" encoding="UTF-8"?>
<svg id="Ebene_2" data-name="Ebene 2" xmlns="http://www.w3.org/2000/svg" viewBox="0 0 331.63 332.21">
  <defs>
    <style>
      .cls-1 {
        fill: #fff;
        fill-rule: evenodd;
      }
    </style>
  </defs>
  <g id="Layer_1" data-name="Layer 1">
    <path class="cls-1" d="M265.54,0H66.68C29.83,0,0,30.41,0,66.68v198.86c0,36.85,29.83,66.68,66.68,66.68h198.86c36.26,0,66.09-29.83,66.09-66.68V66.68C331.63,30.41,301.8,0,265.54,0ZM124.54,101.63l49.14,85.11H75.4l49.14-85.11Zm-29.19,159.82h0s-.02,0-.02,0c-8.54,0-15.94-4.9-19.54-12.04h0s-18.3-31.64-18.3-31.64H191.61l25.2,43.67H95.35Zm174.44-30.21l-17.33,30.02L142.52,70.77h37.62c8.38,0,15.66,4.71,19.33,11.64l71.18,123.73c2.21,3.42,3.5,7.49,3.5,11.86,0,4.95-.94,7.49-4.35,13.24Z"/>
  </g>
</svg>