<?xml version="1.0" encoding="UTF-8"?>
<svg id="Ebene_2" data-name="Ebene 2" xmlns="http://www.w3.org/2000/svg" viewBox="0 0 331.63 332.21">
  <defs>
    <style>
      .cls-1 {
        fill: #171717;
        fill-rule: evenodd;
      }

      .cls-2 {
        fill: #13aff0;
      }
    </style>
  </defs>
  <g id="Layer_1" data-name="Layer 1">
    <g>
      <path class="cls-1" d="M66.68,0h198.86c36.26,0,66.09,30.41,66.09,66.68v198.86c0,36.85-29.83,66.68-66.09,66.68H66.68C29.83,332.21,0,302.38,0,265.54V66.68C0,30.41,29.83,0,66.68,0h0Z"/>
      <g>
        <path class="cls-2" d="M57.48,217.68l18.3,31.63h0c3.6,7.14,11,12.04,19.54,12.04h.02s0,0,0,0h121.46l-25.2-43.67H57.48Z"/>
        <path class="cls-2" d="M274.14,217.9c0-4.37-1.29-8.44-3.5-11.86l-71.18-123.73c-3.68-6.92-10.95-11.64-19.33-11.64h-37.62l109.94,190.49,17.33-30.02c3.42-5.75,4.35-8.29,4.35-13.24Z"/>
        <polygon class="cls-2" points="173.68 186.65 124.54 101.53 75.4 186.65 173.68 186.65"/>
      </g>
    </g>
  </g>
</svg>