<?xml version="1.0" encoding="UTF-8"?>
<svg id="Ebene_2" data-name="Ebene 2" xmlns="http://www.w3.org/2000/svg" viewBox="0 0 331.58 323.39">
  <defs>
    <style>
      .cls-1 {
        fill: #fff;
        fill-rule: evenodd;
      }
    </style>
  </defs>
  <g id="Layer_1" data-name="Layer 1">
    <path class="cls-1" d="M165.78,0C74.23,0,0,74.23,0,165.8c0,73.24,47.5,135.38,113.38,157.31,8.29,1.52,11.32-3.6,11.32-7.99,0-3.94-.14-14.36-.22-28.2-46.12,10.02-55.85-22.22-55.85-22.22-7.54-19.15-18.41-24.25-18.41-24.25-15.05-10.29,1.14-10.08,1.14-10.08,16.64,1.17,25.39,17.09,25.39,17.09,14.79,25.34,38.8,18.02,48.25,13.78,1.51-10.71,5.79-18.02,10.53-22.16-36.81-4.18-75.52-18.41-75.52-81.94,0-18.1,6.46-32.9,17.06-44.49-1.7-4.19-7.39-21.05,1.63-43.88,0,0,13.92-4.46,45.59,17,13.22-3.68,27.41-5.52,41.51-5.58,14.08,.06,28.26,1.9,41.51,5.58,31.65-21.45,45.55-17,45.55-17,9.04,22.83,3.35,39.68,1.65,43.88,10.63,11.59,17.04,26.39,17.04,44.49,0,63.69-38.76,77.7-75.7,81.81,5.95,5.12,11.26,15.24,11.26,30.7,0,22.16-.2,40.04-.2,45.48,0,4.43,2.99,9.59,11.4,7.97,65.82-21.97,113.28-84.07,113.28-157.29C331.58,74.23,257.34,0,165.78,0Z"/>
  </g>
</svg>