<?xml version="1.0" encoding="UTF-8"?>
<svg id="Ebene_2" data-name="Ebene 2" xmlns="http://www.w3.org/2000/svg" viewBox="0 0 331.63 332.21">
  <defs>
    <style>
      .cls-1 {
        fill: #fff;
        fill-rule: evenodd;
      }
    </style>
  </defs>
  <g id="Layer_1" data-name="Layer 1">
    <g>
      <path class="cls-1" d="M215.31,76.44H116.31c-22.29,0-40.43,18.14-40.43,40.43v98.48c0,22.29,18.14,40.43,40.43,40.43h99c22.29,0,40.43-18.14,40.43-40.43V116.87c0-22.29-18.14-40.43-40.43-40.43Zm-49.24,148.76h-.52c-32.14,0-58.57-26.43-58.57-59.09s26.43-59.09,58.57-59.09h.52c32.14,0,59.09,26.95,59.09,59.09s-26.95,59.09-59.09,59.09Zm58.05-104.7c-7.26,0-12.44-5.7-12.44-12.44s5.18-12.44,12.44-12.44c6.74,0,12.44,5.7,12.44,12.44s-5.7,12.44-12.44,12.44Z"/>
      <path class="cls-1" d="M166.07,127.23h-.52c-21.25,0-38.87,17.62-38.87,38.87s17.62,39.39,38.87,39.39h.52c21.25,0,38.87-17.62,38.87-39.39s-17.62-38.87-38.87-38.87Z"/>
      <path class="cls-1" d="M264.95,0H66.68C29.83,0,0,30.41,0,66.68v198.86c0,36.85,29.83,66.68,66.68,66.68h198.28c36.85,0,66.68-29.83,66.68-66.68V66.68C331.63,30.41,301.8,0,264.95,0Zm9.45,215.87c0,32.14-26.43,58.57-58.57,58.57H115.8c-32.14,0-58.57-26.43-58.57-58.57V116.35c0-32.14,26.43-58.57,58.57-58.57h100.04c32.14,0,58.57,26.43,58.57,58.57v99.52Z"/>
    </g>
  </g>
</svg>