<?xml version="1.0" encoding="UTF-8"?>
<svg id="Ebene_2" data-name="Ebene 2" xmlns="http://www.w3.org/2000/svg" xmlns:xlink="http://www.w3.org/1999/xlink" viewBox="0 0 331.63 332.21">
  <defs>
    <style>
      .cls-1 {
        fill: #fff;
      }

      .cls-1, .cls-2 {
        fill-rule: evenodd;
      }

      .cls-2 {
        fill: url(#linear-gradient);
      }
    </style>
    <linearGradient id="linear-gradient" x1="-186.05" y1="104.21" x2="173.51" y2="427.96" gradientTransform="translate(171.18 -61.26) scale(.85)" gradientUnits="userSpaceOnUse">
      <stop offset="0" stop-color="#0496fb"/>
      <stop offset=".14" stop-color="#3f72ff"/>
      <stop offset=".28" stop-color="#784aff"/>
      <stop offset=".42" stop-color="#b038ee"/>
      <stop offset=".57" stop-color="#cd40be"/>
      <stop offset=".72" stop-color="#ff415a"/>
      <stop offset=".86" stop-color="#f7941e"/>
      <stop offset=".98" stop-color="#ffe800"/>
    </linearGradient>
  </defs>
  <g id="Layer_1" data-name="Layer 1">
    <g>
      <path class="cls-2" d="M66.68,0h198.28c36.85,0,66.68,30.41,66.68,66.68v198.86c0,36.85-29.83,66.68-66.68,66.68H66.68C29.83,332.21,0,302.38,0,265.54V66.68C0,30.41,29.83,0,66.68,0h0Z"/>
      <path class="cls-1" d="M115.8,57.78h100.04c32.14,0,58.57,26.43,58.57,58.57v99.52c0,32.14-26.43,58.57-58.57,58.57H115.8c-32.14,0-58.57-26.43-58.57-58.57V116.35c0-32.14,26.43-58.57,58.57-58.57h0Zm108.33,37.84h0c6.74,0,12.44,5.7,12.44,12.44h0c0,6.74-5.7,12.44-12.44,12.44h0c-7.26,0-12.44-5.7-12.44-12.44h0c0-6.74,5.18-12.44,12.44-12.44h0Zm-58.57,11.4h.52c32.14,0,59.09,26.95,59.09,59.09h0c0,32.65-26.95,59.09-59.09,59.09h-.52c-32.14,0-58.57-26.43-58.57-59.09h0c0-32.14,26.43-59.09,58.57-59.09h0Zm0,20.21h.52c21.25,0,38.87,17.62,38.87,38.87h0c0,21.77-17.62,39.39-38.87,39.39h-.52c-21.25,0-38.87-17.62-38.87-39.39h0c0-21.25,17.62-38.87,38.87-38.87h0Zm-49.24-50.8h99c22.29,0,40.43,18.14,40.43,40.43v98.48c0,22.29-18.14,40.43-40.43,40.43H116.31c-22.29,0-40.43-18.14-40.43-40.43V116.87c0-22.29,18.14-40.43,40.43-40.43h0Z"/>
    </g>
  </g>
</svg>