<?xml version="1.0" encoding="UTF-8"?>
<svg id="Ebene_2" data-name="Ebene 2" xmlns="http://www.w3.org/2000/svg" viewBox="0 0 332.21 332.21">
  <defs>
    <style>
      .cls-1 {
        fill: #fff;
        fill-rule: evenodd;
      }
    </style>
  </defs>
  <g id="Layer_1" data-name="Layer 1">
    <path class="cls-1" d="M265.42,0H66.79C29.88,0,0,29.88,0,66.79v198.62c0,36.91,29.88,66.79,66.79,66.79h198.62c36.91,0,66.79-29.88,66.79-66.79V66.79C332.21,29.88,302.33,0,265.42,0ZM111.39,257.36h-37.1v-124.57h37.1v124.57Zm-18.78-142.89c-12.37,0-21.98-10.08-21.98-22.44s9.62-22.44,21.98-22.44,22.44,10.08,22.44,22.44-10.08,22.44-22.44,22.44Zm164.87,77.86v65.03h-36.64v-67.32c-.46-14.2-10.08-25.19-24.27-25.19s-26.1,10.99-26.56,25.19v67.32h-36.64v-124.57h36.64v17.4c7.79-11.45,20.61-18.78,35.26-18.78h10.08c23.36,0,42.13,19.24,42.13,42.13v18.78Z"/>
  </g>
</svg>