<?xml version="1.0" encoding="UTF-8"?>
<svg id="Ebene_2" data-name="Ebene 2" xmlns="http://www.w3.org/2000/svg" viewBox="0 0 332.21 332.21">
  <defs>
    <style>
      .cls-1 {
        fill: #0b66c3;
      }

      .cls-1, .cls-2 {
        fill-rule: evenodd;
      }

      .cls-2 {
        fill: #fff;
      }
    </style>
  </defs>
  <g id="Layer_1" data-name="Layer 1">
    <g>
      <path class="cls-1" d="M66.79,0h198.62c36.91,0,66.79,29.88,66.79,66.79v198.62c0,36.91-29.88,66.79-66.79,66.79H66.79C29.88,332.21,0,302.33,0,265.42V66.79C0,29.88,29.88,0,66.79,0h0Z"/>
      <path class="cls-2" d="M74.29,132.79h37.1v124.57h-37.1v-124.57Zm18.32-63.2c12.37,0,22.44,10.08,22.44,22.44s-10.08,22.44-22.44,22.44-21.98-10.08-21.98-22.44,9.62-22.44,21.98-22.44h0Zm40.76,63.2h36.64v17.4c7.79-11.45,20.61-18.78,35.26-18.78h10.08c23.36,0,42.13,19.24,42.13,42.13v83.81h-36.64v-11.45h0v-55.87h0c-.46-14.2-10.08-25.19-24.27-25.19h0c-14.2,0-26.11,10.99-26.56,25.19h0v67.32h-36.64v-124.57Z"/>
    </g>
  </g>
</svg>